<svg xmlns="http://www.w3.org/2000/svg" viewBox="0 0 178.04 30.57"><defs><style>.cls-1{fill:#bae2f8;}.cls-2{fill:#7dccf3;}.cls-3{fill:#00b8ee;}.cls-4{fill:#00a6e9;}.cls-5{fill:#0096df;}.cls-6{fill:#0080cb;}.cls-7{fill:#0068b6;}.cls-8{fill:#0085d0;}</style></defs><g id="Layer_2" data-name="Layer 2"><g id="レイヤー_1" data-name="レイヤー 1"><path class="cls-1" d="M22.73,28.93a4.47,4.47,0,0,1-.95-.11l-4-.93L2.47,27.48C.87,27.41,0,28.13,0,28.85s1,1.44,2.47,1.37l19.45-.52c1.18-.05,1.72-.29,1.72-.88,0,0,0-.07,0-.11A1.67,1.67,0,0,1,22.73,28.93Z"/><path class="cls-2" d="M23.19,27.86a2.59,2.59,0,0,1-1.05-.26,2.22,2.22,0,0,1-.32-.14l-5.65-3L3.71,20.69c-1.52-.49-2.59.14-2.83,1s.46,2,1.94,2.3l14.93,3.47,2,.46,2,.48a2.33,2.33,0,0,0,1.55-.05.84.84,0,0,0,.28-.31,1,1,0,0,0,.11-.27,0,0,0,0,1,0,0,1.34,1.34,0,0,1-.45.1Z"/><path class="cls-3" d="M23.89,26.8A2.62,2.62,0,0,1,22.35,26l-.16-.15L17,21.08,6.73,14.63a2.09,2.09,0,0,0-3.11.45A2.08,2.08,0,0,0,4.79,18l11.54,6.1,1.93,1,3.74,2c.77.38,1.31.46,1.71.21A1,1,0,0,0,24,27l.09-.12a.59.59,0,0,0,0-.08h-.26Z"/><path class="cls-4" d="M23.06,25,23,24.85,22.47,24l-4.66-7.32L11.23,9.6a2.09,2.09,0,1,0-2.91,2.91l8.93,8.24,1.65,1.53,3.72,3.44c.65.56,1.16.78,1.64.62a1.68,1.68,0,0,0,.36-.21,1.84,1.84,0,0,1-.42-.1A2.93,2.93,0,0,1,23.06,25Z"/><path class="cls-5" d="M24,24l-.26-.84-.3-.93-2.85-8.9L16.81,6.07a2.25,2.25,0,1,0-3.87,2.24l5.2,8.16,1.25,2,3.89,6.12.12.18a2.15,2.15,0,0,0,1.1,1,1,1,0,0,0,.49,0,1.94,1.94,0,0,0,.45-.17,1.8,1.8,0,0,1-.35-.12A2.41,2.41,0,0,1,24,24Z"/><path class="cls-6" d="M25.17,23.23,25.1,22l-.05-1-.6-11.26L23.2,4a2.29,2.29,0,0,0-3-1.75,2.27,2.27,0,0,0-1.74,3L21,13.13l.74,2.32,2.39,7.46.29.91v0a2.32,2.32,0,0,0,.67,1.07,1,1,0,0,0,.47.21,1.25,1.25,0,0,0,.39,0,1.76,1.76,0,0,0,.31,0L26,25A2.19,2.19,0,0,1,25.17,23.23Z"/><path class="cls-7" d="M27.29,1.27c-1.6,0-2.89,1-2.75,2.47l.32,5.94L25,12.26l.51,9.62,0,1,0,.31a2,2,0,0,0,.54,1.34,1.14,1.14,0,0,0,.38.23,1.59,1.59,0,0,0,.33.09,2.78,2.78,0,0,0,.52,0h0c1.41,0,1.55-1.18,1.61-1.71l1-19.45C30.19,2.14,28.75,1.27,27.29,1.27Z"/><path class="cls-7" d="M29.61,28.23a2.33,2.33,0,1,1-2.33-2.33A2.33,2.33,0,0,1,29.61,28.23Z"/><path class="cls-8" d="M45.42.22,47,.26a.19.19,0,0,1,.2.2,1.09,1.09,0,0,1-.11.42V4.4H53v.65H47.13a9.23,9.23,0,0,0,6,8l-.55.66c-4.6-1.82-5.79-4.57-6.23-5.64a11.22,11.22,0,0,1-6.28,5.71l-.51-.6c2.52-1.31,5.56-3.45,5.93-8.13H39.77V4.4h5.75v-3A5.63,5.63,0,0,0,45.42.22Z"/><path class="cls-8" d="M70.34,9a10.68,10.68,0,0,0-.06-1.16l1.57.07c.12,0,.16.09.16.18a1.55,1.55,0,0,1-.13.43v1h4.3v.64h-4.3v2.28h6v.66H64.31v-.66h6V10.11H66V9.47h4.32ZM77.6,1.66V5.13H76V2.31h-9.8V5.13H64.66V1.66h5.68V1a4,4,0,0,0-.07-.78l1.59,0A.16.16,0,0,1,72,.42a.55.55,0,0,1-.1.29v1ZM73.81,4.73a21.91,21.91,0,0,1,3.08,2.91l-1.3,1a12.87,12.87,0,0,0-.85-1.52c-1.39.2-7.5.71-8.75.84-.12.16-.19.24-.31.24s-.15-.1-.18-.17l-.38-1.13a6.31,6.31,0,0,0,1,0c.4,0,1,0,1.8-.06a14.25,14.25,0,0,0,1.39-2.49H67V3.76h8.16v.65h-4c-.35.51-1.59,2-2,2.42,1.71-.08,3.48-.16,5.12-.35-.46-.61-.62-.81-1-1.3Z"/><path class="cls-8" d="M94.62,7.9H93.25V6.07a9.39,9.39,0,0,1-2.7,2.38l-.47-.54a8,8,0,0,0,2.45-2.65H90.79V2.6h2.46V1.75h-3V1.1h3a5.49,5.49,0,0,0,0-.93l1.32.06c.07,0,.17,0,.17.13a.66.66,0,0,1-.09.26V1.1h2.59v.65H94.62V2.6h2.47V5.26H95.36A6.64,6.64,0,0,0,96.82,7l-.43.56A8,8,0,0,1,94.62,6Zm3.13.94V10.2h4v.63h-4v1.58h6v.65H90.2v-.65h2.68V10.49a4.55,4.55,0,0,0-.1-.81l1.49.07c.06,0,.16,0,.16.13a.42.42,0,0,1-.12.24v2.29h1.94V8.84H91.59V8.19h10.79v.65Zm-4.5-5.59H92V4.61h1.27Zm1.37,1.36h1.27V3.25H94.62Zm8.91,3.55a12.81,12.81,0,0,1-2.77-1.77A12.42,12.42,0,0,1,97.53,8l-.32-.58a6.9,6.9,0,0,0,2.87-1.69,6.09,6.09,0,0,1-1.19-2.25c-.25.33-.67.79-1.15,1.31l-.53-.45A8.58,8.58,0,0,0,99.09.16l1.46.38c.06,0,.15.08.15.14s0,.16-.23.29c-.15.3-.18.39-.46.87h3.76v.65H103a7.81,7.81,0,0,1-1.52,3.25A7.35,7.35,0,0,0,104,7.52Zm-3.6-5.4a5.75,5.75,0,0,0,.85,2.09,6.26,6.26,0,0,0,.81-2.36h-2c-.1.14-.16.24-.4.56Z"/><path class="cls-8" d="M121.94,5.61h1.68v.65h-1.68v7.31h-1.55V6.26h-1.71c-.07,3.63-.84,5.51-2.67,7.29l-.62-.48c1.48-1.82,1.73-3.31,1.79-6.81H115.6V5.61h1.59V1.5h-1.32V.85h7.72V1.5h-1.65ZM120.39,1.5h-1.71V5.61h1.71ZM129.16,9a.25.25,0,0,1,.1.16,13,13,0,0,1-6.12,4.53l-.5-.58a8.77,8.77,0,0,0,5.16-4.93ZM129,4.85a.16.16,0,0,1,.1.15c0,.09,0,.13-.23.24a14.12,14.12,0,0,1-5.59,4l-.52-.54a10.53,10.53,0,0,0,4.5-3.86c.07-.11.34-.62.44-.82ZM128.52,1s.09.06.09.12-.15.17-.22.2a15.16,15.16,0,0,1-4.91,3.37l-.56-.48a10.56,10.56,0,0,0,4.27-4Z"/><path class="cls-8" d="M143.41,6.06a14.06,14.06,0,0,1,2.14,1.23,12.85,12.85,0,0,0,.9-4.3h-2.22a16.14,16.14,0,0,1-3.52,4.81l-.6-.44A12.63,12.63,0,0,0,143.37,0l1.7.52c.07,0,.17.06.17.16s-.13.26-.25.38c-.1.31-.25.75-.47,1.28h3.63c-.34,4.75-2.15,8.68-6.89,11l-.68-.55a9.31,9.31,0,0,0,4.27-4A6.64,6.64,0,0,0,143,6.57Zm10.35,3.62a14.86,14.86,0,0,1-2.42-1.18v5.12h-1.55V7.48A15,15,0,0,1,148,5.89l.85-1.41a6.84,6.84,0,0,0,1,1.32V1.33A4.75,4.75,0,0,0,149.7.26l1.61,0c.1,0,.19,0,.19.14a.73.73,0,0,1-.16.35V7.26A11.46,11.46,0,0,0,154.26,9Z"/><path class="cls-8" d="M168.33,5a9.13,9.13,0,0,0,2,3.47L170,9a9.56,9.56,0,0,1-1.63-1.76v6.39h-1.5V7.64a11.34,11.34,0,0,1-2.44,2.9l-.42-.47a11.89,11.89,0,0,0,2.78-5.49h-2.47V4h2.55V1.84c-1.09.08-1.86.1-2.32.1l-.31-.68c.9,0,4-.22,5.24-1l.81,1a.34.34,0,0,1,.1.2c0,.07,0,.12-.14.12a.91.91,0,0,1-.33-.09c-.78.14-1.31.2-1.55.23V4h1.86v.63h-1.86Zm9.5,2.32.21.61-2,.61v5.09h-1.48V9l-4.3,1.33L170,9.65l4.54-1.39V1.13a3.6,3.6,0,0,0-.07-.87L176,.32c.1,0,.22,0,.22.13a.68.68,0,0,1-.16.32v7Zm-5.1.44a13.58,13.58,0,0,0-2-2.69l.41-.57a13,13,0,0,1,2.52,2Zm.19-3.49A14.17,14.17,0,0,0,171,1.76l.37-.5a10.49,10.49,0,0,1,2.52,1.81Z"/><path class="cls-8" d="M39.13,23.63c1.8-.48,6.1-1.71,6.1-5.76a6.23,6.23,0,0,0,0-.85l1.55,0a.22.22,0,0,1,.2.2.48.48,0,0,1-.17.37,4.72,4.72,0,0,0,1.85,3.95,11.27,11.27,0,0,0,4.22,2.05l-.37.68a18.09,18.09,0,0,1-2.16-.68v5.26c0,1.26-.27,1.45-1.37,1.45h-2l-.26-.83a7.91,7.91,0,0,0,1.67.24c.37,0,.42-.12.42-.61V27.72h-5.5V30.4H41.73V23.66a16,16,0,0,1-2.21.65ZM43.58,18v.65H39.67V18Zm0,2.05v.65H39.73V20Zm5.48,3a7.45,7.45,0,0,1-3-2.7,7,7,0,0,1-2.95,2.7Zm-.3,2V23.7h-5.5v1.36Zm0,2V25.7h-5.5v1.39Zm3.61-8.48H48.42V18h3.95Zm0,2.05H48.42V20h3.95Z"/><path class="cls-8" d="M60.24,25.42a6.78,6.78,0,0,1-1.12-1.7v6.71H57.68V24.31A10,10,0,0,1,56,27.1l-.5-.49A13.52,13.52,0,0,0,57.66,21H55.88v-.64h1.8V18a1.88,1.88,0,0,0-.12-.82l1.45.06c.22,0,.26.08.26.19a.46.46,0,0,1-.15.27v2.69h1.32V21H59.21a8.59,8.59,0,0,0,1.48,3.83Zm8.24-2.5v.65h-2.2V26h2.2v.65h-2.2v2.53h2.81v.64h-6v.65H61.66V21.85a14.32,14.32,0,0,1-1,1.37l-.57-.44a12.13,12.13,0,0,0,2-5.78l1.48.42c.11,0,.22.12.22.21s-.12.2-.21.27A13.94,13.94,0,0,1,62.68,20h1.95a10.23,10.23,0,0,0,1-3l1.54.42c.09,0,.22.1.22.18s-.14.24-.27.32a18.4,18.4,0,0,1-1.45,2H68.8v.65H66.28v2.23Zm-3.61,0V20.69H63.09v2.23Zm-1.78.65V26h1.78V23.57Zm0,5.57h1.78V26.61H63.09Z"/><path class="cls-8" d="M75.49,23.74a1.58,1.58,0,1,1-1.57-1.57A1.58,1.58,0,0,1,75.49,23.74Z"/><path class="cls-8" d="M85.79,17.64v4.59H81.73v8.24h-1.5V17.64Zm-1.38,1.95v-1.3H81.73v1.3Zm-2.68.65v1.35h2.68V20.24Zm.87,6.53v-.65h3.09V24.76H82.93v-.64h1.65a6.71,6.71,0,0,0-.8-1.34l.6-.47a7.12,7.12,0,0,1,1.43,1.25l-.9.56h2.66l-.5-.3a5.24,5.24,0,0,0,.76-1.55l1.25.59c.1.05.14.07.14.15s-.2.19-.29.2c-.71.55-.78.61-1.21.91h2.12v.64H87.08v1.36h3.08v.65h-3c.37,1.05,1.3,1.76,2.88,2.51l-.31.37a4.19,4.19,0,0,0,.78.11c.49,0,.49-.23.49-.62V22.23h-4.1V17.64h5.59V29.11c0,1.07-.57,1.24-1.41,1.24h-1.2l-.18-.66-.13.16a6.91,6.91,0,0,1-3.29-2.14,5.81,5.81,0,0,1-3.4,2.2l-.48-.6a4.34,4.34,0,0,0,3.08-2.54Zm8.46-7.18v-1.3H88.31v1.3Zm-2.75.65v1.35h2.75V20.24Z"/><path class="cls-8" d="M101.45,26.29a13.44,13.44,0,0,1,2.37,3.05l-1.4.88a12,12,0,0,0-.53-1.62c-.7.28-1.2.44-4.55,1.58-.15.26-.21.26-.26.26s-.15-.1-.17-.14l-.48-1.09c.44,0,.71-.09,1.17-.17V21.43h5.53v4.7H99v2.58c1-.26,1.62-.41,2.6-.71a10.27,10.27,0,0,0-.69-1.35Zm-1-5.08a9.75,9.75,0,0,0-1-2.15h-.23A19,19,0,0,1,97.1,21l-.58-.4a9.28,9.28,0,0,0,2.3-3.69l1.63.49c.09,0,.18.07.18.15s0,.1-.39.3l-.49.58H103v.65h-2.56a10.16,10.16,0,0,1,1.35,1.4Zm1.27,2.19V22.08H99V23.4ZM99,24.05v1.43h2.64V24.05Zm7.73-2.84a10.09,10.09,0,0,0-1.28-2.15H105A17.62,17.62,0,0,1,103,21l-.58-.36a8.81,8.81,0,0,0,2-3.66l1.68.5c.06,0,.17.05.17.13s-.15.19-.33.29c-.29.35-.33.41-.43.54H110v.65h-3.37a12.3,12.3,0,0,1,1.66,1.4Zm2.55,6.87c0,.64-.06,1.26-1.46,1.26h-1.4l-.26-.74a6.36,6.36,0,0,0,1.24.12c.42,0,.42-.25.42-.62v-6h-2.21v8.36h-1.49v-9h5.16Z"/><path class="cls-8" d="M113.32,23.78A7.39,7.39,0,0,0,117,18.94a8.16,8.16,0,0,0,.37-1.64l1.62.47c.12,0,.25.07.25.13s-.23.33-.26.41c-.18.48-.5,1.31-.56,1.44h3.21c.48,0,2-.06,2.41-.13l.79.82c-.14.38-.66,2.33-.81,2.77-2,6.06-6.66,6.79-9.78,7.06l-.16-.83c2.11-.2,7.72-.86,8.82-8.88H118a9.14,9.14,0,0,1-4.25,3.93Z"/><path class="cls-8" d="M128.3,19.08c0-.11,0-.87-.06-1.13l1.58.11c.07,0,.26,0,.26.1s-.19.35-.17.42v4.8c0,.36,0,2,.06,2.42h-1.71c0-.24,0-2.18,0-2.44Zm2.37,10.66c4.67-.78,4.82-3.29,4.82-8.63a22.89,22.89,0,0,0-.18-3.23L137,18c.08,0,.22,0,.22.11a2.65,2.65,0,0,1-.12.37c0,.14,0,3,0,3.68,0,5.79-1.37,7.6-6.06,8.43Z"/><path class="cls-8" d="M152.42,28.62c-.94-.06-2-.07-2.34-.07h-7.36c-.16,0-1.37,0-2.28.07V27.54c.62,0,2.17.07,2.3.07h7.34a22.45,22.45,0,0,0,2.34-.09Zm-1.16-7.89c-.51-.05-2-.09-2.35-.09h-4.84c-.62,0-1.77,0-2.36.09V19.61c.56.05,1.78.09,2.36.09h4.83c.57,0,1.78,0,2.36-.09Z"/><path class="cls-8" d="M155.17,21.53a12.31,12.31,0,0,1,2.15,3.2l-1.23.58a8.79,8.79,0,0,0-1.48-3.43Zm8.42-.6c.17,0,.24.06.24.11s-.13.34-.14.4c-.72,5.88-3.52,7.67-6.79,8.73l-.33-.6c1.28-.27,5.7-2.06,5.74-8.85Zm-5.13,0a11.76,11.76,0,0,1,2,2.77l-1.26.5a8.6,8.6,0,0,0-1.26-2.95Z"/><path class="cls-8" d="M166.3,23.78A7.39,7.39,0,0,0,170,18.94a8.16,8.16,0,0,0,.37-1.64l1.62.47c.12,0,.25.07.25.13s-.23.33-.26.41c-.18.48-.5,1.31-.56,1.44h3.21c.48,0,2-.06,2.41-.13l.79.82c-.14.38-.66,2.33-.81,2.77-2,6.06-6.66,6.79-9.77,7.06l-.17-.83c2.11-.2,7.72-.86,8.82-8.88H171a9.14,9.14,0,0,1-4.25,3.93Z"/></g></g></svg>