<svg xmlns="http://www.w3.org/2000/svg" viewBox="0 0 33.87 33.01"><defs><style>.cls-1{fill:#bae2f8;}.cls-2{fill:#7dccf3;}.cls-3{fill:#00b8ee;}.cls-4{fill:#00a6e9;}.cls-5{fill:#0096df;}.cls-6{fill:#0080cb;}.cls-7{fill:#0068b6;}</style></defs><g id="Layer_2" data-name="Layer 2"><g id="レイヤー_1" data-name="レイヤー 1"><path class="cls-1" d="M25.61,31.18a5.14,5.14,0,0,1-1.07-.13L20,30,2.79,29.54C1,29.47,0,30.27,0,31.09s1.08,1.62,2.79,1.54L24.71,32c1.33-.06,1.93-.33,1.93-1a.5.5,0,0,0,0-.12A1.91,1.91,0,0,1,25.61,31.18Z"/><path class="cls-2" d="M26.13,30a3.05,3.05,0,0,1-1.19-.29l-.35-.16-6.36-3.36-14-4.27C2.47,21.33,1.26,22.05,1,23s.52,2.24,2.19,2.59L20,29.54l2.26.52,2.28.53a2.52,2.52,0,0,0,1.75-.05.91.91,0,0,0,.32-.35,1,1,0,0,0,.12-.3,0,0,0,0,1,0,0,1.72,1.72,0,0,1-.5.11Z"/><path class="cls-3" d="M26.92,28.77a2.92,2.92,0,0,1-1.73-.86L25,27.73l-5.85-5.4L7.59,15.06a2.35,2.35,0,0,0-3.51.51c-.64,1.1-.22,2.53,1.32,3.29l13,6.87,2.17,1.14,4.22,2.23c.87.43,1.48.52,1.92.24a1.19,1.19,0,0,0,.36-.35l.1-.14a.36.36,0,0,0,0-.09l-.23,0Z"/><path class="cls-4" d="M26,26.71l-.08-.13-.58-.92-5.25-8.24-7.41-8a2.36,2.36,0,1,0-3.29,3.28L19.43,22l1.87,1.73,4.19,3.86c.74.64,1.31.89,1.84.7a1.53,1.53,0,0,0,.41-.23,1.41,1.41,0,0,1-.47-.12A3.18,3.18,0,0,1,26,26.71Z"/><path class="cls-5" d="M27,25.58l-.31-.95-.33-1.05-3.21-10L18.94,5.42a2.47,2.47,0,0,0-3.57-1.16,2.47,2.47,0,0,0-.79,3.68l5.86,9.19,1.41,2.22,4.39,6.89.13.2a2.32,2.32,0,0,0,1.24,1.09,1.14,1.14,0,0,0,.55,0,2.06,2.06,0,0,0,.51-.2,1.7,1.7,0,0,1-.4-.13A2.69,2.69,0,0,1,27,25.58Z"/><path class="cls-6" d="M28.36,24.75l-.07-1.39-.06-1.13L27.55,9.54,26.14,3.08a2.58,2.58,0,0,0-3.4-2,2.56,2.56,0,0,0-2,3.41l2.83,8.85L24.45,16l2.69,8.41.32,1v0a2.54,2.54,0,0,0,.76,1.2,1.3,1.3,0,0,0,.52.24,1.65,1.65,0,0,0,.45,0l.35-.06-.24-.13A2.51,2.51,0,0,1,28.36,24.75Z"/><path class="cls-7" d="M30.76,0C29,0,27.5,1.08,27.65,2.79L28,9.48l.16,2.9.58,10.85.06,1.12v.36a2.18,2.18,0,0,0,.62,1.51,1.41,1.41,0,0,0,.43.26,1.89,1.89,0,0,0,.36.1,3.46,3.46,0,0,0,.59.06h.06c1.59,0,1.74-1.33,1.81-1.92L33.86,2.79C34,1,32.4,0,30.76,0Z"/><path class="cls-7" d="M33.37,30.39a2.63,2.63,0,1,1-2.63-2.63A2.62,2.62,0,0,1,33.37,30.39Z"/></g></g></svg>